<svg width="118" height="24" viewBox="0 0 118 24" fill="none" xmlns="http://www.w3.org/2000/svg">
<path d="M16.8 19.544L17.44 16.952H2.432L7.424 3.896H4.224L4.672 0.823999H28.96L28.512 3.896H13.184L12.288 6.168H26.016L23.04 19.544H27.616L27.168 22.616H0.448L0.896 19.544H16.8ZM9.664 13.816H18.272L19.456 9.304H11.328L9.664 13.816ZM47.1015 6.936H45.3735L45.8215 3.896H47.8695L48.5095 1.336L47.5495 0.247999H53.6295L52.7335 3.896H58.5895L56.1575 21.176C56.0508 21.7947 55.7628 22.3067 55.2935 22.712C54.8242 23.096 54.2802 23.288 53.6615 23.288H48.5735L51.3895 20.344L53.2775 6.936H51.9655L47.9335 23.288H43.0695L47.1015 6.936ZM42.3655 15.448L42.1735 23.288H37.3095V22.424L29.6935 23.288L30.1415 20.312L33.2135 10.584H31.4855L31.9335 7.544H44.0935L43.6455 10.584H38.0775L35.1655 19.704L37.4055 19.448L37.5015 15.448H42.3655ZM44.3175 1.464L43.9015 4.504H32.9575L33.3735 1.464H44.3175ZM75.995 14.008L75.899 14.84L77.755 16.408L80.347 14.648L80.571 13.176H70.235L70.651 10.264H86.875L86.139 15.448L80.859 19.032L85.883 23.288H79.131L77.115 21.592L74.619 23.288H67.675L74.011 18.968L69.915 15.448L70.107 14.008H75.995ZM61.467 20.536L62.139 15.736L59.963 16.376L60.443 12.984L62.619 12.344L63.387 6.936H61.275L61.723 3.896H63.803L64.187 1.208L63.387 0.279999H69.755L69.243 3.896H70.523L70.075 6.936H68.827L68.283 10.68L69.627 10.264L69.147 13.656L67.803 14.072L66.811 21.144C66.7257 21.7627 66.4377 22.2747 65.947 22.68C65.4777 23.064 64.9443 23.256 64.347 23.256H58.971L61.467 20.536ZM81.083 9.432L81.883 3.864H77.179L75.963 9.432H70.651L72.251 2.008L71.259 0.855999H87.291L86.523 6.232H87.099L88.187 5.016L87.547 9.432H81.083ZM97.2725 7.672L93.7205 23.256H88.5685L93.4005 2.008L92.4405 0.855999H117.497L116.537 7.672H97.2725ZM114.105 10.68H115.769L115.417 13.24H113.561L113.241 15.512H115.673L115.289 18.264H112.857L112.153 23.256H106.489L107.193 18.264H103.641L101.945 23.256H96.2805L97.9445 18.264H96.2165L96.6005 15.512H98.8725L99.6405 13.24H97.5605L97.9125 10.68H99.8965L99.4805 8.344H104.985L105.401 10.68H108.569L109.689 8.344H115.161L114.105 10.68ZM97.9445 4.984H111.865L112.089 3.32H98.2645L97.9445 4.984ZM104.569 15.512H107.577L107.897 13.24H105.337L104.569 15.512Z" fill="white" fill-opacity="0.8956"/>
</svg>
