<svg width="440" height="87" viewBox="0 0 440 87" fill="none" xmlns="http://www.w3.org/2000/svg">
<path d="M61.6055 72.4384L64.0055 62.7184H7.72547L26.4455 13.7584H14.4455L16.1255 2.23844H107.205L105.525 13.7584H48.0455L44.6855 22.2784H96.1655L85.0055 72.4384H102.165L100.485 83.9584H0.285469L1.96547 72.4384H61.6055ZM34.8455 50.9584H67.1255L71.5655 34.0384H41.0855L34.8455 50.9584ZM175.236 25.1584H168.756L170.436 13.7584H178.116L180.516 4.15843L176.916 0.0784345H199.716L196.356 13.7584H218.316L209.196 78.5584C208.796 80.8784 207.716 82.7984 205.956 84.3184C204.196 85.7584 202.156 86.4784 199.836 86.4784H180.756L191.316 75.4384L198.396 25.1584H193.476L178.356 86.4784H160.116L175.236 25.1584ZM157.476 57.0784L156.756 86.4784H138.516V83.2384L109.956 86.4784L111.636 75.3184L123.156 38.8384H116.676L118.356 27.4384H163.956L162.276 38.8384H141.396L130.476 73.0384L138.876 72.0784L139.236 57.0784H157.476ZM164.796 4.63843L163.236 16.0384H122.196L123.756 4.63843H164.796ZM283.587 51.6784L283.227 54.7984L290.187 60.6784L299.907 54.0784L300.747 48.5584H261.987L263.547 37.6384H324.387L321.627 57.0784L301.827 70.5184L320.667 86.4784H295.347L287.787 80.1184L278.427 86.4784H252.387L276.147 70.2784L260.787 57.0784L261.507 51.6784H283.587ZM229.107 76.1584L231.627 58.1584L223.467 60.5584L225.267 47.8384L233.427 45.4384L236.307 25.1584H228.387L230.067 13.7584H237.867L239.307 3.67843L236.307 0.198433H260.187L258.267 13.7584H263.067L261.387 25.1584H256.707L254.667 39.1984L259.707 37.6384L257.907 50.3584L252.867 51.9184L249.147 78.4384C248.827 80.7584 247.747 82.6784 245.907 84.1984C244.147 85.6384 242.147 86.3584 239.907 86.3584H219.747L229.107 76.1584ZM302.667 34.5184L305.667 13.6384H288.027L283.467 34.5184H263.547L269.547 6.67844L265.827 2.35843H325.947L323.067 22.5184H325.227L329.307 17.9584L326.907 34.5184H302.667ZM363.377 27.9184L350.057 86.3584H330.737L348.857 6.67844L345.257 2.35843H439.217L435.617 27.9184H363.377ZM426.497 39.1984H432.737L431.417 48.7984H424.457L423.257 57.3184H432.377L430.937 67.6384H421.817L419.177 86.3584H397.937L400.577 67.6384H387.257L380.897 86.3584H359.657L365.897 67.6384H359.417L360.857 57.3184H369.377L372.257 48.7984H364.457L365.777 39.1984H373.217L371.657 30.4384H392.297L393.857 39.1984H405.737L409.937 30.4384H430.457L426.497 39.1984ZM365.897 17.8384H418.097L418.937 11.5984H367.097L365.897 17.8384ZM390.737 57.3184H402.017L403.217 48.7984H393.617L390.737 57.3184Z" fill="#00FFFF"/>
</svg>
